<svg xmlns="http://www.w3.org/2000/svg" xmlns:xlink="http://www.w3.org/1999/xlink" width="28" height="28" viewBox="0 0 28 28" fill="currentColor"><defs><rect id="path_0" x="0" y="0" width="28" height="28" /></defs><g opacity="1" transform="translate(0 0)  rotate(0 14 14)"><mask id="bg-mask-0" fill="white"><use xlink:href="#path_0"></use></mask><g mask="url(#bg-mask-0)" ><path id="分组 1" fill-rule="evenodd" style="fill:currentColor" transform="translate(1.7792031249999942 1.7533632812500102)  rotate(0 12.207466796875003 12.242302734374999)" opacity="1" d="M0.39 11.83C1.65 18.29 0.41 22.97 0.4 23.01L0 24.48L1.44 24C1.47 23.99 4.48 23 8.43 23C9.74 23 11.03 23.11 12.25 23.33L12.39 23.34C19.02 23.34 24.41 18.11 24.41 11.67C24.41 5.24 19.02 0 12.39 0C5.76 0 0.37 5.24 0.37 11.67L0.39 11.83Z M6.92615 13.4099C7.69615 13.4099 8.31615 12.7899 8.31615 12.0199C8.31615 11.2499 7.69615 10.6299 6.92615 10.6299C6.15615 10.6299 5.53615 11.2499 5.53615 12.0199C5.53615 12.7899 6.15615 13.4099 6.92615 13.4099Z M13.7803 12.0835C13.7803 11.3135 13.1603 10.6935 12.3903 10.6935C11.6203 10.6935 11.0003 11.3135 11.0003 12.0835C11.0003 12.8535 11.6203 13.4735 12.3903 13.4735C13.1603 13.4735 13.7803 12.8535 13.7803 12.0835Z M17.855 13.3463C18.625 13.3463 19.245 12.7263 19.245 11.9563C19.245 11.1863 18.625 10.5663 17.855 10.5663C17.085 10.5663 16.465 11.1863 16.465 11.9563C16.465 12.7263 17.085 13.3463 17.855 13.3463Z " /></g></g></svg>