<svg xmlns="http://www.w3.org/2000/svg" xmlns:xlink="http://www.w3.org/1999/xlink" width="28" height="28" fill="currentColor" viewBox="0 0 28 28"><defs><rect id="path_0" width="28" height="28" x="0" y="0"/></defs><g opacity="1" transform="translate(0 0) rotate(0 14 14)"><mask id="bg-mask-0" fill="#fff"><use xlink:href="#path_0"/></mask><g mask="url(#bg-mask-0)"><path id="分组 1" fill-rule="evenodd" style="fill:currentColor" d="M7.175 17.15C7.465 17.54 8.015 17.61 8.395 17.33C8.785 17.04 8.865 16.49 8.575 16.1L6.345 13.13L8.575 10.15C8.765 9.9 8.805 9.57 8.675 9.28C8.555 8.99 8.295 8.79 7.975 8.76C7.665 8.72 7.365 8.85 7.175 9.1L4.545 12.6C4.315 12.91 4.315 13.34 4.545 13.65L7.175 17.15Z M20.8251 12.6001L18.1951 9.10012C17.9151 8.71012 17.3651 8.64012 16.9751 8.92012C16.5851 9.21012 16.5151 9.76012 16.7951 10.1501L19.0351 13.1201L16.7951 16.1001C16.5151 16.4901 16.5851 17.0401 16.9751 17.3201C17.3651 17.6101 17.9151 17.5401 18.1951 17.1501L20.8251 13.6501C21.0551 13.3401 21.0551 12.9101 20.8251 12.6001Z M14.4208 8.94047C14.5108 8.47047 14.2108 8.01047 13.7508 7.91047C13.2808 7.81047 12.8208 8.10047 12.7108 8.56047L10.9608 16.4305C10.8608 16.9005 11.1608 17.3605 11.6308 17.4605C12.0908 17.5705 12.5508 17.2805 12.6708 16.8105L14.4208 8.94047Z M0 23.49C0 25.01 1.21 26.25 2.71 26.25L15.83 26.25C16.05 26.25 16.25 26.17 16.41 26.04L22.44 20.68C22.54 20.59 22.61 20.49 22.66 20.38C22.72 20.26 22.75 20.13 22.75 20L22.75 2.76001C22.75 1.24001 21.54 1e-05 20.04 1e-05L2.71 1e-05C1.21 1e-05 0 1.24001 0 2.76001L0 23.49Z" opacity="1" transform="translate(2.625000000000009 0.8749900000000377) rotate(0 11.375 13.125004768371582)"/></g></g></svg>