<?xml version="1.0" encoding="utf-8"?>
<svg version="1.1" id="matcha_text" xmlns="http://www.w3.org/2000/svg" xmlns:xlink="http://www.w3.org/1999/xlink" x="0px" y="0px"
	 viewBox="0 0 320 100" style="enable-background:new 0 0 320 100;" xml:space="preserve">
<style type="text/css">
	.st0{fill:#0A1A29;}
</style>
<g>
	<path class="st0" d="M65.4,81.89c-2,0-2.81-0.76-2.81-2.61V39.43c0-0.49-0.35-0.9-0.83-0.99c-0.06-0.01-0.11-0.01-0.17-0.01
		c-0.42,0-0.8,0.26-0.94,0.67c-0.98,2.8-1.95,5.56-2.93,8.29c-0.98,2.73-1.98,5.49-3.02,8.29c-1.11,3.06-2.23,6.1-3.37,9.13
		c-1.14,3.03-2.27,6.08-3.37,9.14c-0.33,0.89-0.7,1.54-1.08,1.93c-0.16,0.16-0.63,0.44-1.88,0.44c-0.89,0-1.53-0.16-1.85-0.46
		c-0.41-0.38-0.78-1.02-1.11-1.92L29.43,39.09c-0.15-0.4-0.52-0.66-0.94-0.66c-0.06,0-0.11,0-0.17,0.02
		c-0.48,0.08-0.83,0.5-0.83,0.98v39.84c0,0.97-0.19,1.66-0.56,2.05c-0.34,0.36-1.14,0.56-2.25,0.56h-3.61
		c-1.86,0-2.61-0.76-2.61-2.61V18.63c0-1.02,0.19-1.76,0.56-2.15c0.35-0.37,1.09-0.57,2.15-0.57h4.49c1.09,0,1.64,0.16,1.9,0.29
		c0.3,0.15,0.62,0.57,0.9,1.18l15.59,44.64c0.14,0.4,0.52,0.67,0.94,0.67h0c0.42,0,0.8-0.27,0.94-0.67c1.3-3.71,2.6-7.37,3.9-10.98
		c1.3-3.62,2.6-7.28,3.91-10.99c1.29-3.82,2.64-7.67,4-11.47c1.37-3.81,2.73-7.6,4.1-11.37c0.01-0.03,0.02-0.06,0.03-0.1
		c0.18-0.71,0.48-0.85,0.58-0.9c0.29-0.13,0.88-0.3,2.06-0.3h4.3c1.11,0,1.91,0.2,2.25,0.57c0.36,0.39,0.56,1.13,0.56,2.15v60.64
		c0,0.97-0.19,1.66-0.56,2.05c-0.35,0.37-1.09,0.56-2.15,0.56H65.4z"/>
	<path class="st0" d="M98.73,83.36c-5.2,0-9.21-1.8-12.27-5.5c-3.06-3.7-4.61-9.14-4.61-16.16c0-4.1,0.57-7.89,1.71-11.25
		c1.12-3.34,2.75-6.23,4.83-8.59c2.07-2.35,4.62-4.21,7.56-5.51c2.95-1.3,6.28-1.97,9.9-1.97c6.59,0,12.29,1.92,16.97,5.72v40.06
		c0,1.04-0.24,1.35-0.31,1.41c-0.1,0.1-0.46,0.32-1.52,0.32h-4.59c-1,0-1.25-0.37-1.36-1.01l-0.49-2.94
		c-0.07-0.39-0.36-0.71-0.74-0.81c-0.08-0.02-0.16-0.03-0.24-0.03c-0.31,0-0.6,0.14-0.79,0.39C109.8,81.39,105.08,83.36,98.73,83.36
		z M105.76,41.46c-4.42,0-8,1.81-10.67,5.38c-2.59,3.48-3.91,8.35-3.91,14.46c0,5.16,0.92,8.84,2.8,11.26
		c1.91,2.46,4.83,3.71,8.65,3.71c1.5,0,2.94-0.29,4.29-0.86c1.36-0.57,2.57-1.4,3.6-2.47c1.03-1.07,1.87-2.37,2.5-3.87
		c0.63-1.52,0.96-3.24,0.96-5.12V45.11C114,45,114,44,113.72,43.67c-0.91-1.08-2.39-1.33-3.58-1.68
		C108.95,41.64,107.47,41.46,105.76,41.46z"/>
	<path class="st0" d="M147.83,83.36c-4.53,0-7.8-1.4-10-4.29c-2.23-2.93-3.36-7.1-3.36-12.38V44.32c0-0.55-0.45-1-1-1h-4.2
		c-1.28,0-1.69-0.29-1.81-0.41c-0.13-0.13-0.42-0.59-0.42-1.91v-2.73c0-1.29,0.27-1.79,0.44-1.98c0.12-0.13,0.52-0.44,1.79-0.44h4.2
		c0.55,0,1-0.45,1-1v-5.47c0-1.2,0.18-2.4,0.54-3.56c0.38-1.22,0.99-2.78,1.81-4.62c0.43-0.86,0.69-1.07,0.74-1.1
		c0.01,0,0.28-0.16,1.38-0.16h2.73c1.28,0,2.12,0.39,2.12,2.32v12.6c0,0.55,0.45,1,1,1h9.08c1.28,0,1.64,0.32,1.71,0.41
		c0.15,0.19,0.41,0.7,0.41,2.01V41c0,1.34-0.27,1.8-0.39,1.93c-0.08,0.09-0.44,0.39-1.73,0.39h-9.08c-0.55,0-1,0.45-1,1v21.97
		c0,3.34,0.43,5.69,1.31,7.19c0.97,1.66,2.61,2.5,4.87,2.5c1.31,0,2.44-0.21,3.38-0.62c0.9-0.4,1.89-1.03,3.01-1.95
		c0.08-0.07,0.16-0.15,0.22-0.25c0,0,0,0,0.01,0c0.03,0,0.13-0.02,0.31-0.02c0.21,0,0.43,0.06,0.68,0.45l1.83,3.89
		c-0.06,0.13-0.09,0.27-0.09,0.42c0,0.45,0.3,0.83,0.7,0.96c0.02,0.03,0.04,0.06,0.05,0.08c-0.07,0.1-0.23,0.32-0.62,0.66
		C156.26,82.08,152.33,83.36,147.83,83.36z"/>
	<path class="st0" d="M185.23,83.36c-7.04,0-12.59-2.08-16.51-6.18c-3.93-4.12-5.92-10.21-5.92-18.11c0-3.65,0.54-7.03,1.6-10.07
		c1.06-3.02,2.57-5.63,4.49-7.77c1.91-2.13,4.26-3.82,6.99-5.03c2.72-1.21,5.81-1.82,9.17-1.82c3.39,0,6.27,0.39,8.57,1.17
		c2.28,0.77,4.44,2.01,6.41,3.67c0.42,0.38,0.51,0.59,0.52,0.63c0,0.01-0.02,0.09-0.06,0.24c-0.06,0.2-0.14,0.44-0.26,0.73
		l-2.12,4.43c-0.08,0.17-0.33,0.6-0.56,0.6c-0.23,0-0.53-0.13-0.86-0.39c-1.76-1.29-3.47-2.28-5.1-2.96
		c-1.68-0.7-3.72-1.05-6.05-1.05c-4.22,0-7.57,1.63-9.94,4.85c-2.3,3.12-3.47,7.41-3.47,12.75c0,11.42,4.77,17.21,14.18,17.21
		c2.26,0,4.27-0.33,5.98-1c1.68-0.65,3.32-1.66,4.88-3.01c0.52-0.33,0.82-0.38,0.96-0.38c0.08,0,0.3,0,0.58,0.45l2.04,4.34
		c-0.05,0.31,0.05,0.64,0.28,0.87c0.12,0.12,0.15,0.19,0.15,0.2c0.02,0.05,0.03,0.08,0.03,0.11c-0.06,0.09-0.22,0.31-0.63,0.69
		c-2.06,1.63-4.35,2.88-6.76,3.65C191.38,82.96,188.49,83.36,185.23,83.36z"/>
	<path class="st0" d="M242.06,81.89c-0.98,0-1.67-0.19-1.99-0.54c-0.35-0.39-0.53-1.1-0.53-2.07V51.54c0-3.6-0.66-6.1-2.01-7.64
		c-1.37-1.55-3.46-2.34-6.22-2.34c-1.37,0-2.74,0.29-4.1,0.86c-1.34,0.57-2.56,1.35-3.62,2.34c-1.06,0.99-1.93,2.18-2.56,3.52
		c-0.65,1.37-0.98,2.89-0.98,4.53v26.46c0,0.96-0.18,1.68-0.53,2.07c-0.32,0.35-1,0.54-1.99,0.54h-4.2c-1.86,0-2.61-0.76-2.61-2.61
		V17.56c0-1.05,0.21-1.36,0.26-1.41l0,0c0,0,0.25-0.23,1.38-0.23h5.57c1.13,0,1.38,0.23,1.38,0.23c0.04,0.05,0.25,0.36,0.25,1.41
		v21.48c0,0.41,0.25,0.78,0.63,0.93c0.12,0.05,0.24,0.07,0.37,0.07c0.27,0,0.54-0.11,0.73-0.32c1.65-1.77,3.58-3.12,5.75-4
		c2.18-0.89,4.8-1.34,7.78-1.34c4.31,0,7.65,1.3,10.21,3.99c2.54,2.66,3.83,6.83,3.83,12.4v28.52c0,0.96-0.18,1.68-0.53,2.07
		c-0.32,0.35-1,0.54-1.99,0.54H242.06z"/>
	<path class="st0" d="M273.22,83.36c-5.2,0-9.21-1.8-12.27-5.5c-3.06-3.7-4.61-9.14-4.61-16.16c0-4.1,0.57-7.89,1.71-11.25
		c1.12-3.34,2.75-6.23,4.83-8.59c2.07-2.35,4.62-4.21,7.56-5.51c2.95-1.3,6.28-1.97,9.9-1.97c6.59,0,12.29,1.92,16.97,5.72v40.06
		c0,1.04-0.24,1.35-0.31,1.41c-0.1,0.1-0.46,0.32-1.52,0.32h-4.59c-1,0-1.25-0.37-1.36-1.01l-0.49-2.94
		c-0.07-0.39-0.36-0.71-0.74-0.81c-0.08-0.02-0.16-0.03-0.24-0.03c-0.31,0-0.6,0.14-0.79,0.39
		C284.29,81.39,279.56,83.36,273.22,83.36z M280.25,41.46c-4.42,0-8,1.81-10.67,5.38c-2.59,3.48-3.91,8.35-3.91,14.46
		c0,5.16,0.92,8.84,2.8,11.26c1.91,2.46,4.83,3.71,8.65,3.71c1.5,0,2.94-0.29,4.29-0.86c1.36-0.57,2.57-1.4,3.6-2.47
		c1.03-1.07,1.87-2.37,2.5-3.87c0.63-1.52,0.96-3.24,0.96-5.12V45.11c0.01-0.11,0.01-1.11-0.26-1.43c-0.91-1.08-2.39-1.33-3.58-1.68
		C283.44,41.64,281.96,41.46,280.25,41.46z"/>
</g>
</svg>
