<svg id="Icons" viewBox="0 0 60 60" xmlns="http://www.w3.org/2000/svg"><path d="m51 12v43c0 2.209-1.791 4-4 4h-34c-2.209 0-4-1.791-4-4v-50c0-2.209 1.791-4 4-4h27z" fill="#e8ecef"/><path d="m51 12h-10c-.55 0-1-.45-1-1v-10z" fill="#c7d0dd"/><path d="m19 30h6v14h-6c-1.656 0-3-1.344-3-3v-8c0-1.656 1.344-3 3-3z" fill="#3d4654"/><path d="m24 44 8.341 7.583c1.021.928 2.659.204 2.659-1.176v-26.815c0-1.38-1.638-2.105-2.659-1.176l-8.341 7.583v14z" fill="#545e6d"/><g fill="#69adfe"><path d="m39 41c-.256 0-.512-.098-.707-.293-.391-.391-.391-1.023 0-1.414.018-.02.707-.774.707-2.293s-.689-2.273-.719-2.305c-.372-.398-.362-1.028.029-1.408.393-.377 1.01-.381 1.396.006.133.132 1.293 1.36 1.293 3.707s-1.16 3.575-1.293 3.707c-.195.195-.451.293-.707.293z"/><path d="m41.001 45c-.299 0-.593-.133-.79-.386-.34-.437-.261-1.064.175-1.403.104-.082 2.614-2.126 2.614-6.211s-2.511-6.129-2.618-6.214c-.431-.343-.506-.97-.166-1.402.342-.434.964-.511 1.398-.173.138.107 3.386 2.691 3.386 7.789s-3.248 7.682-3.386 7.789c-.183.143-.399.211-.613.211z"/></g></svg>