<svg id="Icons" viewBox="0 0 60 60" xmlns="http://www.w3.org/2000/svg"><path d="m51 12v43c0 2.209-1.791 4-4 4h-34c-2.209 0-4-1.791-4-4v-50c0-2.209 1.791-4 4-4h27s11 11 11 11z" fill="#e8ecef"/><g fill="#c7d0dd"><path d="m51 12h-10c-.55 0-1-.45-1-1v-10z"/><path d="m45 20h-30c-.552 0-1-.448-1-1s.448-1 1-1h30c.553 0 1 .448 1 1s-.447 1-1 1z"/><path d="m45 28h-30c-.552 0-1-.448-1-1s.448-1 1-1h30c.553 0 1 .448 1 1s-.447 1-1 1z"/><path d="m45 36h-30c-.552 0-1-.447-1-1s.448-1 1-1h30c.553 0 1 .447 1 1s-.447 1-1 1z"/><path d="m45 44h-30c-.552 0-1-.447-1-1s.448-1 1-1h30c.553 0 1 .447 1 1s-.447 1-1 1z"/><path d="m35 52h-20c-.552 0-1-.447-1-1s.448-1 1-1h20c.553 0 1 .447 1 1s-.447 1-1 1z"/></g></svg>