<svg id="Icons" viewBox="0 0 60 60" xmlns="http://www.w3.org/2000/svg"><path d="m54 12v43c0 2.209-1.791 4-4 4h-34c-2.209 0-4-1.791-4-4v-50c0-2.209 1.791-4 4-4h27z" fill="#e8ecef"/><path d="m54 12h-10c-.55 0-1-.45-1-1v-10z" fill="#c7d0dd"/><path d="m18.51 52.32c-.32-.35-.51-.81-.51-1.32v-26c0-1.1.9-2 2-2h26c1.1 0 2 .9 2 2v26c0 1.1-.9 2-2 2h-2z" fill="#69adfe"/><circle cx="25.5" cy="30.5" fill="#fcd763" r="3.5"/><path d="m48 42.39v8.61c0 1.1-.9 2-2 2h-3l-6-9.28 4.49-5.96c.76-1.01 2.26-1.01 3.02 0z" fill="#8ae28a"/><path d="m44 53h-24c-.59 0-1.13-.26-1.49-.68l10.98-14.56c.76-1.01 2.26-1.01 3.02 0z" fill="#9eef9e"/><path d="m38 33c-.553 0-1-.447-1-1s-.448-1-1-1-1-.447-1-1 .447-1 1-1c.768 0 1.469.29 2 .766.531-.476 1.232-.766 2-.766.553 0 1 .447 1 1s-.447 1-1 1-1 .448-1 1-.447 1-1 1z" fill="#56718c"/></svg>