<svg id="Icons" viewBox="0 0 60 60" xmlns="http://www.w3.org/2000/svg"><path d="m51 12v43c0 2.209-1.791 4-4 4h-34c-2.209 0-4-1.791-4-4v-50c0-2.209 1.791-4 4-4h27z" fill="#e8ecef"/><path d="m51 12h-10c-.55 0-1-.45-1-1v-10z" fill="#c7d0dd"/><rect fill="#69adfe" height="28" rx="3" width="32" x="14" y="26"/><circle cx="30" cy="40" fill="#fff" r="8"/><path d="m32.6 40.819-3.002 2.308c-.659.506-1.598.025-1.598-.819v-4.615c0-.844.94-1.325 1.598-.819l3.002 2.308c.533.41.533 1.229 0 1.638z" fill="#e53e4b"/></svg>