<svg xmlns="http://www.w3.org/2000/svg" xmlns:xlink="http://www.w3.org/1999/xlink" width="16" height="16" viewBox="0 0 16 16" fill="currentColor"><g opacity="1"  transform="translate(0 0)  rotate(0)"><mask id="bg-mask-0" fill="white"><use xlink:href="#path_0"></use></mask><g mask="url(#bg-mask-0)" ><path id="路径 1" fill-rule="evenodd" style="fill:#currentColor" opacity="1" d="M2.4,1.6c-0.44,0 -0.8,0.36 -0.8,0.8v8.5c0,0.44 0.36,0.8 0.8,0.8h1.55c0.44,0 0.8,0.36 0.8,0.8v1.41l4.24,-2.13c0.11,-0.05 0.24,-0.08 0.36,-0.08h4.25c0.44,0 0.8,-0.36 0.8,-0.8v-2.9c0,-0.29 0.15,-0.55 0.4,-0.69c0.25,-0.15 0.55,-0.15 0.8,0c0.25,0.14 0.4,0.4 0.4,0.69v2.9c0,1.33 -1.07,2.4 -2.4,2.4h-4.06l-5.23,2.62c-0.25,0.12 -0.55,0.11 -0.78,-0.04c-0.24,-0.15 -0.38,-0.4 -0.38,-0.68v-1.9h-0.75c-1.33,0 -2.4,-1.07 -2.4,-2.4v-8.5c0,-1.32 1.08,-2.4 2.4,-2.4h4.7c0.44,0 0.8,0.36 0.8,0.8c0,0.44 -0.36,0.8 -0.8,0.8zM12.05,0c0.44,0 0.8,0.36 0.8,0.8v1.9h1.9c0.44,0 0.8,0.36 0.8,0.8c0,0.44 -0.36,0.8 -0.8,0.8h-1.9v1.9c0,0.29 -0.15,0.55 -0.4,0.69c-0.25,0.15 -0.55,0.15 -0.8,0c-0.25,-0.14 -0.4,-0.4 -0.4,-0.69v-1.9h-1.9c-0.44,0 -0.8,-0.36 -0.8,-0.8c0,-0.44 0.36,-0.8 0.8,-0.8h1.9v-1.9c0,-0.44 0.36,-0.8 0.8,-0.8z"></path></g></g><defs><rect id="path_0" x="0" y="0" width="16" height="16" /></defs></svg>
