<?xml version="1.0" standalone="no"?>
<svg version="1.0" xmlns="http://www.w3.org/2000/svg"
 width="500.000000pt" height="500.000000pt" viewBox="0 0 500.000000 500.000000"
 preserveAspectRatio="xMidYMid meet">
<g transform="translate(0.000000,500.000000) scale(0.100000,-0.100000)"
fill="currentColor" stroke="none">
<path d="M2015 4550 c-3 -5 1 -10 9 -10 9 0 16 5 16 10 0 6 -4 10 -9 10 -6 0
-13 -4 -16 -10z"/>
<path d="M1967 4513 c-4 -3 -7 -13 -7 -21 0 -12 3 -12 15 -2 8 7 15 16 15 21
0 11 -14 12 -23 2z"/>
<path d="M1912 4498 c-14 -14 -16 -28 -3 -28 9 0 24 30 18 36 -2 2 -9 -2 -15
-8z"/>
<path d="M1909 4404 c-5 -15 -7 -29 -4 -32 7 -7 34 29 35 46 0 22 -20 13 -31
-14z"/>
<path d="M360 4386 c0 -8 26 -29 58 -46 60 -35 152 -99 345 -242 122 -91 165
-119 153 -99 -9 14 -352 281 -424 330 -56 37 -116 71 -127 71 -3 0 -5 -6 -5
-14z"/>
<path d="M1846 4364 c-9 -24 -7 -54 4 -54 6 0 10 16 10 35 0 38 -4 44 -14 19z"/>
<path d="M1887 4343 c-4 -3 -7 -20 -7 -37 0 -35 14 -25 24 17 6 25 -2 35 -17
20z"/>
<path d="M4310 4325 c-10 -12 -10 -15 3 -15 8 0 20 7 27 15 10 12 10 15 -3 15
-8 0 -20 -7 -27 -15z"/>
<path d="M4377 4325 c3 -9 -2 -24 -12 -35 -15 -16 -15 -22 -5 -35 17 -20 34
-19 26 1 -4 9 -2 22 3 28 11 13 3 56 -10 56 -5 0 -6 -7 -2 -15z"/>
<path d="M4229 4251 c-23 -23 -39 -45 -35 -48 4 -4 25 12 48 35 23 23 39 44
35 48 -3 4 -25 -12 -48 -35z"/>
<path d="M2200 4245 c0 -10 10 -15 30 -15 32 0 40 14 14 24 -27 10 -44 7 -44
-9z"/>
<path d="M4330 4239 c0 -5 5 -7 10 -4 6 3 10 8 10 11 0 2 -4 4 -10 4 -5 0 -10
-5 -10 -11z"/>
<path d="M1880 4225 c0 -8 5 -15 10 -15 6 0 10 7 10 15 0 8 -4 15 -10 15 -5 0
-10 -7 -10 -15z"/>
<path d="M2055 4230 c-4 -6 15 -10 50 -10 35 0 54 4 50 10 -3 6 -26 10 -50 10
-24 0 -47 -4 -50 -10z"/>
<path d="M1951 4209 c-18 -11 -31 -22 -29 -25 7 -6 71 17 88 32 24 23 -19 18
-59 -7z"/>
<path d="M2320 4221 c0 -11 17 -17 79 -26 53 -9 49 9 -7 25 -46 12 -72 13 -72
1z"/>
<path d="M4420 4221 c0 -5 7 -14 15 -21 8 -7 15 -25 15 -41 0 -34 15 -38 31
-8 9 18 7 26 -17 50 -28 29 -44 37 -44 20z"/>
<path d="M1847 4188 c7 -38 9 -41 21 -37 11 5 -5 69 -18 69 -5 0 -7 -14 -3
-32z"/>
<path d="M2673 4193 c-28 -11 -11 -21 30 -18 54 4 56 5 32 15 -23 10 -44 11
-62 3z"/>
<path d="M1890 4170 c0 -5 5 -10 10 -10 6 0 10 5 10 10 0 6 -4 10 -10 10 -5 0
-10 -4 -10 -10z"/>
<path d="M2490 4170 c0 -9 31 -30 44 -30 16 0 3 18 -19 28 -14 7 -25 8 -25 2z"/>
<path d="M2790 4170 c0 -5 14 -16 30 -25 24 -13 30 -13 30 -2 0 8 -11 19 -25
25 -31 15 -35 15 -35 2z"/>
<path d="M2582 4154 c-21 -15 -30 -34 -14 -34 4 1 21 12 37 25 34 28 14 35
-23 9z"/>
<path d="M4116 4141 c-4 -7 -5 -15 -2 -18 9 -9 19 4 14 18 -4 11 -6 11 -12 0z"/>
<path d="M1800 4120 c0 -5 7 -10 15 -10 8 0 15 5 15 10 0 6 -7 10 -15 10 -8 0
-15 -4 -15 -10z"/>
<path d="M1735 4110 c-3 -5 3 -10 14 -10 11 0 23 5 26 10 3 6 -3 10 -14 10
-11 0 -23 -4 -26 -10z"/>
<path d="M2892 4113 c2 -5 14 -29 28 -55 25 -50 47 -65 35 -25 -11 33 -45 87
-57 87 -5 0 -8 -3 -6 -7z"/>
<path d="M4450 4101 c0 -6 5 -13 10 -16 6 -3 10 1 10 9 0 9 -4 16 -10 16 -5 0
-10 -4 -10 -9z"/>
<path d="M4009 4045 c-24 -33 -57 -71 -72 -87 -19 -18 -27 -35 -25 -50 5 -35
28 -27 42 14 13 35 19 46 79 121 16 20 27 42 25 48 -2 7 -24 -14 -49 -46z"/>
<path d="M1638 4076 c-10 -7 -18 -16 -18 -20 0 -12 18 -6 41 14 28 22 6 28
-23 6z"/>
<path d="M4458 4064 c-5 -4 -8 -19 -8 -33 0 -18 3 -22 11 -14 6 6 9 21 7 33
-1 12 -6 18 -10 14z"/>
<path d="M1551 4017 c-6 -8 -8 -17 -4 -20 7 -8 33 11 33 24 0 13 -16 11 -29
-4z"/>
<path d="M3871 3994 c-29 -37 -26 -52 4 -24 19 18 28 20 38 12 21 -18 29 -1
10 20 -21 24 -28 23 -52 -8z"/>
<path d="M625 3959 c-155 -27 -309 -61 -319 -70 -24 -22 38 -20 168 5 77 15
154 30 170 33 l29 5 -31 -56 c-18 -30 -32 -58 -32 -61 0 -10 129 109 135 124
13 33 -17 38 -120 20z"/>
<path d="M2948 3964 c-3 -5 -11 -37 -18 -71 -7 -35 -17 -63 -21 -63 -5 0 -9
-7 -9 -17 0 -14 2 -14 20 2 11 10 18 20 15 23 -2 3 1 14 7 26 17 31 26 82 18
96 -4 7 -10 8 -12 4z"/>
<path d="M4422 3948 c-16 -21 -24 -58 -13 -58 9 0 41 50 41 65 0 10 -17 5 -28
-7z"/>
<path d="M1475 3924 c-9 -14 -14 -29 -10 -32 6 -7 44 36 45 51 0 16 -19 6 -35
-19z"/>
<path d="M3811 3882 c-14 -26 -7 -42 10 -25 6 6 9 19 7 29 -3 17 -5 17 -17 -4z"/>
<path d="M3891 3856 c-6 -16 -9 -37 -5 -45 5 -13 8 -11 15 9 6 13 8 33 6 45
-3 17 -5 16 -16 -9z"/>
<path d="M2975 3860 c3 -5 15 -10 25 -10 10 0 22 5 25 10 4 6 -7 10 -25 10
-18 0 -29 -4 -25 -10z"/>
<path d="M4372 3845 c-24 -30 -28 -45 -12 -45 14 0 43 47 38 61 -2 7 -13 0
-26 -16z"/>
<path d="M546 3833 c-6 -20 9 -261 17 -269 7 -8 19 171 15 230 -3 50 -22 72
-32 39z"/>
<path d="M1422 3838 c-6 -7 -13 -25 -17 -41 -11 -42 12 -33 24 10 12 41 9 50
-7 31z"/>
<path d="M3076 3841 c5 -6 23 -17 39 -26 l30 -16 -47 3 c-26 1 -51 -1 -54 -5
-10 -10 25 -57 43 -57 15 0 15 2 -1 19 -15 17 -16 19 -1 25 9 3 20 4 24 1 15
-9 91 -23 91 -16 0 13 -97 81 -116 81 -11 0 -14 -3 -8 -9z"/>
<path d="M3800 3776 c0 -25 5 -46 10 -46 6 0 10 18 10 39 0 22 -4 43 -10 46
-6 4 -10 -12 -10 -39z"/>
<path d="M1280 3771 c0 -10 42 -23 49 -15 7 6 -20 24 -36 24 -7 0 -13 -4 -13
-9z"/>
<path d="M4281 3735 c-40 -43 -51 -65 -32 -65 14 0 81 79 81 95 0 22 -3 20
-49 -30z"/>
<path d="M3215 3750 c3 -5 17 -10 31 -10 13 0 24 5 24 10 0 6 -14 10 -31 10
-17 0 -28 -4 -24 -10z"/>
<path d="M1198 3739 c-18 -10 -25 -29 -10 -29 4 0 18 9 32 20 27 21 10 28 -22
9z"/>
<path d="M1350 3730 c0 -5 7 -10 15 -10 8 0 15 5 15 10 0 6 -7 10 -15 10 -8 0
-15 -4 -15 -10z"/>
<path d="M3150 3716 c0 -17 72 -49 96 -44 18 5 18 5 -1 12 -11 4 -37 15 -57
26 -28 13 -38 15 -38 6z"/>
<path d="M1122 3688 c-14 -14 -16 -28 -3 -28 9 0 24 30 18 36 -2 2 -9 -2 -15
-8z"/>
<path d="M3828 3690 c-3 -8 -3 -29 -1 -46 7 -42 -12 -74 -42 -74 -14 0 -25 -5
-25 -11 0 -6 16 -9 37 -7 34 3 38 6 46 41 9 38 -4 126 -15 97z"/>
<path d="M3195 3647 c-35 -21 -46 -47 -21 -47 8 0 17 8 21 19 4 13 12 17 28
14 14 -3 29 2 36 11 12 14 10 16 -15 15 -16 0 -38 -6 -49 -12z"/>
<path d="M4193 3631 c-13 -11 -23 -22 -23 -25 0 -13 20 -5 47 19 33 29 10 35
-24 6z"/>
<path d="M1090 3584 c0 -21 4 -33 10 -29 6 3 10 19 10 36 0 16 -4 29 -10 29
-5 0 -10 -16 -10 -36z"/>
<path d="M3136 3574 c-10 -25 -1 -27 19 -4 15 17 16 20 3 20 -9 0 -19 -7 -22
-16z"/>
<path d="M4071 3554 c-24 -26 -30 -39 -22 -47 8 -8 16 -4 31 14 11 13 25 30
31 37 7 9 8 17 2 23 -6 6 -22 -4 -42 -27z"/>
<path d="M3705 3519 c-4 -6 -5 -13 -2 -16 7 -7 27 6 27 18 0 12 -17 12 -25 -2z"/>
<path d="M3050 3485 c-13 -14 -21 -27 -18 -30 9 -9 32 5 51 30 25 34 -1 34
-33 0z"/>
<path d="M4076 3478 c-11 -43 -6 -53 13 -23 18 29 18 45 2 45 -5 0 -11 -10
-15 -22z"/>
<path d="M710 3472 c0 -30 22 -84 30 -75 12 12 -3 86 -18 91 -7 2 -12 -5 -12
-16z"/>
<path d="M1090 3473 c0 -15 40 -73 50 -73 5 0 0 18 -11 40 -19 36 -39 53 -39
33z"/>
<path d="M650 3436 c0 -35 10 -56 26 -56 15 0 18 21 8 58 -8 30 -34 29 -34 -2z"/>
<path d="M3646 3438 c-9 -12 -14 -24 -11 -26 6 -7 24 8 35 29 15 27 -5 25 -24
-3z"/>
<path d="M803 3398 c-36 -50 -76 -128 -70 -134 7 -8 117 141 117 159 0 28 -15
20 -47 -25z"/>
<path d="M4015 3380 c-16 -16 -26 -33 -22 -36 8 -9 23 2 47 36 28 39 12 39
-25 0z"/>
<path d="M1182 3350 c13 -20 28 -27 28 -12 0 10 -22 32 -32 32 -5 0 -3 -9 4
-20z"/>
<path d="M3572 3328 c-34 -49 -37 -58 -23 -58 12 0 63 79 58 93 -2 6 -18 -10
-35 -35z"/>
<path d="M3062 3348 c6 -18 77 -72 85 -65 3 4 -11 23 -33 42 -40 35 -59 44
-52 23z"/>
<path d="M1127 3252 c-20 -21 -37 -44 -37 -51 0 -7 20 8 45 33 25 26 45 49 45
51 0 13 -20 1 -53 -33z"/>
<path d="M3916 3228 c-17 -24 -21 -48 -8 -48 8 0 34 61 28 67 -2 3 -11 -6 -20
-19z"/>
<path d="M1145 3199 c-10 -15 -17 -69 -10 -69 6 0 35 63 35 75 0 9 -19 5 -25
-6z"/>
<path d="M3190 3198 c0 -14 42 -99 47 -95 10 10 -8 65 -28 83 -10 9 -19 15
-19 12z"/>
<path d="M3472 3155 c-25 -52 -26 -55 -12 -55 10 0 50 71 50 90 0 23 -17 7
-38 -35z"/>
<path d="M635 3094 c-8 -21 -18 -48 -21 -61 -7 -28 -32 -43 -71 -43 -15 0 -35
-5 -43 -10 -25 -16 6 -29 48 -19 20 4 37 7 39 6 1 -1 -7 -40 -18 -87 -22 -92
-22 -158 -1 -80 7 25 23 74 35 110 25 73 33 77 130 79 l58 1 -16 -30 c-13 -26
-54 -170 -55 -192 0 -5 4 -8 9 -8 12 0 103 239 95 252 -5 7 -37 9 -96 6 -64
-4 -88 -2 -85 6 28 76 30 87 20 97 -9 9 -16 2 -28 -27z"/>
<path d="M1056 3105 c-3 -11 -1 -36 3 -55 8 -35 8 -35 18 -10 6 14 13 39 17
55 6 26 4 31 -13 31 -12 0 -22 -9 -25 -21z"/>
<path d="M3822 3067 c-32 -72 -35 -87 -19 -87 14 0 55 115 44 126 -3 3 -14
-15 -25 -39z"/>
<path d="M1270 3085 c-5 -19 -8 -30 -9 -42 0 -7 -7 -12 -13 -10 -8 1 -14 -10
-16 -27 -2 -18 0 -26 7 -21 6 3 11 13 11 21 0 8 5 12 10 9 6 -3 10 -16 10 -28
0 -25 15 -53 22 -41 2 5 -1 41 -8 79 -6 39 -13 66 -14 60z"/>
<path d="M3412 3020 c-26 -62 -29 -88 -8 -71 16 13 40 93 34 112 -2 7 -14 -12
-26 -41z"/>
<path d="M1170 3037 c0 -13 -4 -27 -9 -32 -17 -19 -43 -127 -33 -137 7 -7 14
10 23 45 6 31 17 55 23 54 6 -1 12 18 14 46 2 28 -1 47 -7 47 -6 0 -11 -10
-11 -23z"/>
<path d="M1118 3035 c-12 -22 -18 -84 -9 -106 7 -21 10 -16 16 33 7 56 4 91
-7 73z"/>
<path d="M3268 3005 c-7 -7 17 -124 27 -133 11 -10 -2 119 -12 129 -5 5 -12 7
-15 4z"/>
<path d="M1226 2952 c-8 -13 11 -113 24 -126 19 -19 20 2 4 65 -18 71 -19 74
-28 61z"/>
<path d="M3361 2902 c-12 -18 -21 -42 -19 -55 3 -19 7 -16 26 21 29 54 24 77
-7 34z"/>
<path d="M1190 2907 c0 -15 29 -57 30 -42 0 6 -3 20 -6 33 -7 24 -24 31 -24 9z"/>
<path d="M1315 2868 c8 -38 37 -87 42 -72 4 13 -33 104 -42 104 -4 0 -4 -15 0
-32z"/>
<path d="M3230 2871 c0 -11 5 -23 10 -26 6 -3 10 3 10 14 0 11 -4 23 -10 26
-5 3 -10 -3 -10 -14z"/>
<path d="M3731 2826 c-6 -16 -9 -37 -5 -45 5 -13 8 -11 15 9 6 13 8 33 6 45
-3 17 -5 16 -16 -9z"/>
<path d="M3264 2822 c5 -16 4 -22 -6 -20 -9 2 -14 -14 -16 -62 -2 -60 -1 -63
13 -45 9 11 13 26 10 33 -3 7 -2 25 1 39 l7 26 14 -27 c24 -46 56 -28 46 27
-5 25 -14 32 -37 28 -4 -1 -15 4 -23 11 -14 11 -15 10 -9 -10z"/>
<path d="M3039 2765 c-1 -3 -2 -9 -3 -14 0 -5 -4 -13 -8 -17 -11 -10 -10 -74
1 -74 5 0 12 17 16 37 l7 37 18 -24 c28 -37 36 -17 10 24 -19 32 -38 46 -41
31z"/>
<path d="M1385 2719 c-9 -27 4 -129 16 -129 11 0 11 30 0 87 -5 28 -5 43 2 46
8 2 7 6 0 10 -7 4 -14 -2 -18 -14z"/>
<path d="M3680 2644 c-6 -14 -10 -32 -10 -40 0 -8 -7 -14 -16 -14 -14 0 -14
-3 -4 -15 7 -8 18 -15 25 -15 6 0 20 -9 30 -20 14 -15 21 -17 29 -9 8 8 6 14
-7 23 -50 30 -49 28 -33 74 16 45 3 60 -14 16z"/>
<path d="M2856 2641 c-4 -7 -5 -15 -2 -18 9 -9 19 4 14 18 -4 11 -6 11 -12 0z"/>
<path d="M3110 2616 c0 -15 18 -31 26 -23 7 7 -7 37 -17 37 -5 0 -9 -6 -9 -14z"/>
<path d="M2995 2578 c-9 -24 -19 -49 -22 -55 -3 -7 0 -13 6 -13 10 0 29 37 45
88 13 40 -12 23 -29 -20z"/>
<path d="M2936 2594 c-9 -22 3 -32 14 -14 12 19 12 30 1 30 -5 0 -12 -7 -15
-16z"/>
<path d="M2831 2569 c-13 -38 -13 -39 -3 -39 9 0 32 44 32 60 0 22 -19 8 -29
-21z"/>
<path d="M2880 2515 c0 -45 4 -75 10 -75 7 0 10 29 9 75 -1 41 -6 75 -10 75
-5 0 -9 -34 -9 -75z"/>
<path d="M2915 2519 c-9 -39 1 -50 15 -15 12 34 13 46 1 46 -5 0 -12 -14 -16
-31z"/>
<path d="M592 2453 c3 -49 12 -104 21 -123 15 -35 15 -34 16 72 1 116 -3 138
-26 138 -13 0 -15 -14 -11 -87z"/>
<path d="M3121 2524 c-18 -21 -6 -30 14 -11 8 9 15 18 15 21 0 11 -15 5 -29
-10z"/>
<path d="M2701 2498 c-14 -39 -14 -41 1 -36 15 5 38 -36 38 -68 0 -13 5 -24
10 -24 14 0 12 44 -2 58 -10 10 -10 15 2 22 9 6 10 10 3 10 -6 0 -14 13 -18
30 -9 42 -21 45 -34 8z"/>
<path d="M2946 2495 c-4 -16 -9 -36 -12 -42 -5 -18 15 -16 22 1 3 8 4 27 2 43
l-4 28 -8 -30z"/>
<path d="M806 2499 c-26 -80 -74 -444 -61 -457 10 -11 15 7 25 84 5 43 22 143
37 221 21 109 24 146 15 155 -9 9 -12 8 -16 -3z"/>
<path d="M3787 2478 c18 -18 36 -29 39 -25 10 10 -36 57 -55 57 -11 0 -6 -10
16 -32z"/>
<path d="M1425 2455 c8 -55 23 -100 31 -92 3 3 0 33 -7 66 -14 75 -35 96 -24
26z"/>
<path d="M1490 2486 c0 -8 5 -18 10 -21 6 -3 10 3 10 14 0 12 -4 21 -10 21 -5
0 -10 -6 -10 -14z"/>
<path d="M3044 2466 c-16 -13 -25 -28 -21 -32 4 -4 20 4 34 19 35 34 24 45
-13 13z"/>
<path d="M2794 2445 c-5 -31 1 -74 10 -64 2 2 6 25 9 52 8 54 -9 65 -19 12z"/>
<path d="M1485 2437 c-8 -20 -1 -144 9 -154 14 -14 16 8 8 88 -6 56 -11 78
-17 66z"/>
<path d="M1536 2405 c16 -25 34 -33 34 -17 0 10 -33 42 -44 42 -3 0 1 -11 10
-25z"/>
<path d="M2646 2401 c-19 -19 -26 -37 -24 -52 4 -23 5 -23 13 -4 5 11 18 32
29 47 27 38 15 44 -18 9z"/>
<path d="M3830 2416 c0 -2 7 -9 15 -16 12 -10 15 -10 15 4 0 9 -7 16 -15 16
-8 0 -15 -2 -15 -4z"/>
<path d="M2966 2394 c-5 -13 -9 -14 -22 -4 -11 10 -18 10 -26 2 -7 -7 -24 -12
-38 -12 -14 0 -35 -7 -47 -15 -17 -12 -23 -12 -29 -3 -5 8 -10 2 -16 -17 -8
-31 -2 -47 11 -27 14 23 62 42 102 42 39 0 89 23 89 41 0 15 -18 10 -24 -7z"/>
<path d="M2020 2350 c0 -11 5 -20 10 -20 6 0 10 5 10 11 0 5 11 -3 24 -18 31
-36 46 -23 17 13 -27 35 -61 42 -61 14z"/>
<path d="M3842 2345 c-17 -36 -15 -41 8 -20 20 18 27 45 12 45 -5 0 -14 -11
-20 -25z"/>
<path d="M2150 2340 c0 -5 4 -10 9 -10 5 0 14 -13 20 -30 5 -16 15 -30 20 -30
16 0 13 10 -11 47 -23 33 -38 42 -38 23z"/>
<path d="M1605 2298 c3 -24 7 -63 10 -88 2 -25 4 -47 5 -50 0 -3 5 2 10 10 15
24 -2 170 -21 170 -6 0 -8 -16 -4 -42z"/>
<path d="M1813 2304 c21 -14 41 -23 44 -20 9 9 -40 45 -62 46 -15 0 -10 -6 18
-26z"/>
<path d="M1959 2324 c-1 -5 0 -19 1 -31 1 -18 -3 -20 -22 -16 -20 5 -18 1 14
-33 42 -43 57 -40 38 6 -23 56 -1 44 26 -14 14 -32 28 -55 30 -53 3 2 1 31 -3
63 -4 32 -9 51 -11 40 -3 -16 -8 -14 -38 15 -19 18 -34 29 -35 23z"/>
<path d="M1673 2290 c-6 -16 -8 -32 -3 -35 5 -3 10 1 13 7 3 10 7 10 21 -1 23
-19 33 -5 13 17 -10 10 -17 24 -17 30 0 23 -16 12 -27 -18z"/>
<path d="M2146 2293 c-5 -13 -12 -23 -17 -23 -14 0 -11 -34 5 -56 13 -17 15
-17 21 -3 3 9 4 36 2 60 -3 36 -5 40 -11 22z"/>
<path d="M2735 2299 c-10 -15 1 -23 20 -15 9 3 13 10 10 16 -8 13 -22 13 -30
-1z"/>
<path d="M2635 2290 c-4 -6 -2 -17 4 -23 15 -15 25 -2 13 19 -7 12 -11 13 -17
4z"/>
<path d="M2685 2290 c-3 -5 3 -10 14 -10 12 0 21 5 21 10 0 6 -6 10 -14 10 -8
0 -18 -4 -21 -10z"/>
<path d="M3790 2285 c-10 -12 -10 -15 3 -15 8 0 20 7 27 15 10 12 10 15 -3 15
-8 0 -20 -7 -27 -15z"/>
<path d="M1800 2271 c0 -5 4 -21 10 -35 7 -19 6 -25 -3 -23 -7 1 -12 -4 -12
-12 0 -16 62 -57 71 -48 7 7 -48 126 -58 126 -5 1 -8 -3 -8 -8z"/>
<path d="M2215 2222 c-6 -22 3 -52 16 -52 12 0 12 57 0 65 -5 3 -12 -3 -16
-13z"/>
<path d="M3720 2215 c-7 -9 -11 -18 -8 -20 9 -10 38 7 38 21 0 18 -14 18 -30
-1z"/>
<path d="M2184 2110 c-48 -30 -89 -68 -83 -75 6 -5 30 8 112 64 38 25 10 36
-29 11z"/>
<path d="M3610 2103 c-17 -7 -39 -33 -40 -47 0 -5 8 -2 18 7 10 10 24 17 30
17 7 0 12 7 12 15 0 8 -1 15 -2 14 -2 0 -10 -3 -18 -6z"/>
<path d="M2055 2010 c-3 -5 3 -10 14 -10 12 0 21 5 21 10 0 6 -6 10 -14 10 -8
0 -18 -4 -21 -10z"/>
<path d="M3494 2005 c-32 -14 -60 -42 -52 -51 3 -3 26 9 52 26 62 42 62 52 0
25z"/>
<path d="M1945 1971 c-37 -23 -101 -89 -93 -96 11 -12 133 70 151 101 12 21
-22 18 -58 -5z"/>
<path d="M3352 1877 c-36 -24 -95 -97 -86 -106 3 -3 20 11 37 30 18 20 47 46
65 58 17 12 32 27 32 32 0 14 -11 10 -48 -14z"/>
<path d="M727 1873 c-3 -3 4 -19 16 -35 20 -28 22 -41 22 -177 0 -141 1 -149
25 -184 26 -38 49 -51 34 -19 -4 9 -11 87 -14 172 -5 139 -8 159 -29 197 -23
41 -43 57 -54 46z"/>
<path d="M1806 1814 c-11 -27 -7 -37 9 -24 16 14 20 40 6 40 -5 0 -12 -7 -15
-16z"/>
<path d="M1806 1761 c-3 -5 1 -12 10 -15 20 -8 29 -1 19 13 -8 13 -22 14 -29
2z"/>
<path d="M3286 1749 c-4 -8 -1 -29 5 -45 11 -25 13 -26 16 -9 2 12 0 32 -6 45
-7 20 -10 22 -15 9z"/>
<path d="M1784 1695 c-16 -39 -17 -45 -6 -45 4 0 17 18 30 40 19 34 20 40 7
40 -9 0 -23 -16 -31 -35z"/>
<path d="M3330 1581 c0 -11 5 -32 11 -48 11 -28 11 -28 20 -5 5 14 4 32 -3 47
-13 30 -28 33 -28 6z"/>
<path d="M1730 1541 c-12 -24 -13 -101 -1 -101 5 0 11 19 13 43 3 23 8 50 12
60 11 24 -11 22 -24 -2z"/>
<path d="M3370 1476 c0 -9 5 -16 10 -16 6 0 10 4 10 9 0 6 -4 13 -10 16 -5 3
-10 -1 -10 -9z"/>
<path d="M1731 1393 c0 -10 4 -27 8 -37 11 -28 23 -4 15 29 -7 28 -24 34 -23
8z"/>
<path d="M3404 1375 c11 -44 28 -80 33 -68 6 18 -16 93 -28 93 -7 0 -9 -10 -5
-25z"/>
<path d="M1741 1243 c0 -42 3 -52 9 -38 12 28 12 95 0 95 -6 0 -10 -25 -9 -57z"/>
<path d="M1310 1137 c-85 -149 -270 -514 -289 -567 -22 -64 7 -16 111 185 57
110 143 266 192 347 77 130 93 169 68 168 -4 -1 -41 -60 -82 -133z"/>
<path d="M722 1244 c2 -13 20 -23 63 -35 33 -9 68 -20 78 -24 10 -4 17 -3 17
3 0 12 -90 58 -133 68 -25 6 -28 4 -25 -12z"/>
<path d="M3457 1234 c-7 -12 10 -84 24 -98 13 -14 10 32 -5 73 -7 19 -15 30
-19 25z"/>
<path d="M1722 1120 c-11 -45 3 -56 18 -14 12 32 13 54 1 54 -5 0 -13 -18 -19
-40z"/>
<path d="M1029 1046 c-105 -72 -239 -156 -265 -168 -39 -18 -24 -45 20 -34 19
5 167 114 301 221 50 40 13 28 -56 -19z"/>
<path d="M3498 1064 c-6 -6 7 -72 16 -81 3 -4 6 12 6 35 0 38 -10 59 -22 46z"/>
<path d="M1675 989 c-18 -53 -15 -76 5 -38 19 35 29 78 20 84 -5 3 -16 -18
-25 -46z"/>
<path d="M3530 905 c0 -24 24 -105 31 -105 12 0 11 12 -2 66 -6 24 -15 44 -20
44 -5 0 -9 -2 -9 -5z"/>
<path d="M1637 893 c-10 -9 -8 -45 1 -61 6 -8 9 2 10 28 2 41 0 45 -11 33z"/>
<path d="M1743 799 c21 -11 48 -19 60 -17 19 3 16 7 -17 21 -21 9 -48 17 -60
17 -16 -1 -12 -5 17 -21z"/>
<path d="M3570 696 c0 -25 5 -48 10 -51 6 -4 10 11 10 39 0 25 -4 48 -10 51
-6 4 -10 -11 -10 -39z"/>
<path d="M1810 696 c0 -19 5 -38 10 -41 6 -4 10 10 10 34 0 23 -4 41 -10 41
-5 0 -10 -15 -10 -34z"/>
<path d="M3584 560 c4 -25 12 -49 18 -55 7 -7 9 3 4 35 -4 25 -12 50 -18 55
-7 7 -9 -3 -4 -35z"/>
<path d="M1826 541 c-12 -18 2 -67 16 -53 7 7 7 20 1 38 -6 19 -12 24 -17 15z"/>
<path d="M1830 413 c0 -38 15 -61 24 -38 11 30 7 65 -9 65 -10 0 -15 -10 -15
-27z"/>
<path d="M3620 432 c0 -13 51 -84 57 -78 7 6 -38 86 -49 86 -4 0 -8 -3 -8 -8z"/>
<path d="M1817 313 c-3 -5 -8 -30 -11 -58 -6 -48 -5 -49 8 -20 20 44 28 85 17
85 -5 0 -12 -3 -14 -7z"/>
<path d="M3704 297 c-8 -22 4 -70 16 -62 13 8 13 45 0 65 -8 12 -10 12 -16 -3z"/>
<path d="M1766 164 c-7 -18 -8 -70 -1 -63 2 3 11 22 20 42 13 31 13 37 1 37
-8 0 -17 -7 -20 -16z"/>
<path d="M3715 167 c-4 -10 -5 -21 -1 -24 10 -10 18 4 13 24 -4 17 -4 17 -12
0z"/>
<path d="M3731 100 c-1 -8 8 -26 19 -40 15 -19 20 -21 20 -9 0 9 -9 27 -20 40
-13 17 -19 19 -19 9z"/>
<path d="M1746 42 c-4 -18 -5 -36 -2 -39 11 -12 17 5 14 39 l-3 33 -9 -33z"/>
</g>
</svg>
