<svg xmlns="http://www.w3.org/2000/svg" xmlns:xlink="http://www.w3.org/1999/xlink" width="160" height="160" fill="none" viewBox="0 0 160 160"><defs><rect id="path_0" width="160" height="160" x="0" y="0"/><path id="path_1" d="M113.66,160C115.93,160 118.03,159.63 119.93,158.88C121.82,158.13 123.54,156.99 125.06,155.49C126.58,153.98 127.78,152.24 128.67,150.24C129.56,148.22 130,146.22 130,144.22L130,45.01L84.99,0L16.34,0C14.07,0 11.97,0.37 10.08,1.12C8.18,1.87 6.46,3.01 4.94,4.51C3.42,6.02 2.22,7.76 1.33,9.76C0.44,11.78 0,13.78 0,15.78L0,144.22C0,146.22 0.44,148.22 1.33,150.24C2.22,152.24 3.42,153.98 4.94,155.49C6.46,156.99 8.18,158.13 10.08,158.88C11.97,159.63 14.07,160 16.34,160L113.66,160Z" transform="translate(0 0) rotate(0 65 80)"/></defs><g opacity="1" transform="translate(0 0) rotate(0 80 80)"><mask id="bg-mask-0" fill="#fff"><use xlink:href="#path_0"/></mask><g mask="url(#bg-mask-0)"><g opacity="1" transform="translate(15 0) rotate(0 65 80)"><mask id="mask-1" fill="#fff"><use xlink:href="#path_1"/></mask><g mask="url(#mask-1)"><path id="Mask" fill-rule="evenodd" style="fill:#ffa941" d="M113.66,160C115.93,160 118.03,159.63 119.93,158.88C121.82,158.13 123.54,156.99 125.06,155.49C126.58,153.98 127.78,152.24 128.67,150.24C129.56,148.22 130,146.22 130,144.22L130,45.01L84.99,0L16.34,0C14.07,0 11.97,0.37 10.08,1.12C8.18,1.87 6.46,3.01 4.94,4.51C3.42,6.02 2.22,7.76 1.33,9.76C0.44,11.78 0,13.78 0,15.78L0,144.22C0,146.22 0.44,148.22 1.33,150.24C2.22,152.24 3.42,153.98 4.94,155.49C6.46,156.99 8.18,158.13 10.08,158.88C11.97,159.63 14.07,160 16.34,160L113.66,160Z" opacity="1" transform="translate(0 0) rotate(0 65 80)"/></g><g mask="url(#mask-1)"><path id="Fill 1" fill-rule="evenodd" style="fill:#fff" d="M15.79,14.81L15.79,45.86C12.25,45.86 9.74,45.99 6.79,47.56C0.93,50.68 -1.63,56.71 1.08,61.02C3.79,65.35 10.74,66.32 16.59,63.2C21.64,60.52 23.14,55.61 23.14,51.63L23.14,19.89L47.65,14.24L47.65,39.09C44.32,39.09 41.6,39.21 38.65,40.78C32.79,43.9 30.23,49.93 32.94,54.25C35.65,58.57 42.6,59.55 48.46,56.43C53.5,53.75 55,48.66 55,44.86L55,10.29L55,5.28C55,3.76 54.3,2.32 53.11,1.37C51.92,0.42 50.36,0.07 48.88,0.41L19.66,7.14C17.39,7.67 15.79,9.68 15.79,12.01L15.79,14.81Z" opacity="1" transform="translate(37.5 59.97121266465745) rotate(0 27.5 32.51439366767127)"/></g><g mask="url(#mask-1)"><path id="Path" fill-rule="evenodd" style="fill:#ffd591" d="M45,45L0,0L0,35C0,40.52 4.48,45 10,45L45,45Z" opacity="1" transform="translate(85 0) rotate(0 22.5 22.5)"/></g></g></g></g></svg>