<svg xmlns="http://www.w3.org/2000/svg" xmlns:xlink="http://www.w3.org/1999/xlink" width="16" height="16" viewBox="0 0 16 16" fill="none"><defs><rect id="path_0" x="0" y="0" width="16" height="16" /></defs><g opacity="1" transform="translate(0 0)  rotate(0 8 8)"><mask id="bg-mask-0" fill="white"><use xlink:href="#path_0"></use></mask><g mask="url(#bg-mask-0)" ><path id="分组 1" fill-rule="evenodd" style="fill:currentColor" transform="translate(0.10389920791592232 0.09381127643646744)  rotate(0 7.90340380500228 7.9533980546875)" opacity="1" d="M0.05 8.53L2.4 8.53C2 6.14 3.37 3.73 5.8 2.82C7.6 2.14 9.55 2.47 10.92 3.43L9.75 5.26L15.01 5.24L13.13 0L12.17 1.5C10.14 0.23 7.37 -0.18 4.95 0.73C1.6 1.99 -0.33 5.24 0.05 8.53Z M5.11461 12.4828C5.38461 12.0628 6.17461 10.8328 6.17461 10.8328L0.524612 10.5128L2.91461 15.9028L3.91461 14.3428C5.94461 15.6128 8.43461 15.9328 10.8546 15.0228C14.2046 13.7628 16.1446 10.5128 15.7546 7.22277L13.4046 7.22277C13.8046 9.61277 12.4446 12.0228 10.0046 12.9328C8.34461 13.5528 6.52461 13.3228 5.11461 12.4828Z M13.4046 7.22277C13.4046 7.22277 13.4046 7.22277 13.4046 7.22277L13.4046 7.22277Z M13.4046 7.22277C13.4046 7.22277 13.4046 7.22277 13.4046 7.22277L13.4046 7.22277Z " /></g></g></svg>