<svg xmlns="http://www.w3.org/2000/svg" xmlns:xlink="http://www.w3.org/1999/xlink" width="28" height="28" viewBox="0 0 28 28" fill="currentColor"><defs><rect id="path_0" x="0" y="0" width="28" height="28" /></defs><g opacity="1" transform="translate(0 0)  rotate(0 14 14)"><mask id="bg-mask-0" fill="white"><use xlink:href="#path_0"></use></mask><g mask="url(#bg-mask-0)" ><path id="分组 1" fill-rule="evenodd" style="fill:currentColor" transform="translate(2.625 0.8749999999999984)  rotate(0 11.375 13.125000000000002)" opacity="1" d="M8.575 10.15C8.765 9.89999 8.805 9.56999 8.675 9.27999C8.555 8.98999 8.295 8.78999 7.975 8.75999C7.665 8.71999 7.365 8.84999 7.175 9.09999L4.545 12.6C4.315 12.91 4.315 13.34 4.545 13.65L7.175 17.15C7.465 17.54 8.015 17.61 8.395 17.33C8.785 17.04 8.865 16.49 8.575 16.1L6.345 13.13L8.575 10.15Z M16.7951 16.1001C16.5151 16.4901 16.5851 17.0401 16.9751 17.3201C17.3651 17.6101 17.9151 17.5401 18.1951 17.1501L20.8251 13.6501C21.0551 13.3401 21.0551 12.9101 20.8251 12.6001L18.1951 9.10011C17.9151 8.71011 17.3651 8.64011 16.9751 8.92011C16.5851 9.21011 16.5151 9.76011 16.7951 10.1501L19.0351 13.1201L16.7951 16.1001Z M14.4208 8.94046C14.5108 8.47046 14.2108 8.01046 13.7508 7.91046C13.2808 7.81046 12.8208 8.10046 12.7108 8.56046L10.9608 16.4305C10.8608 16.9005 11.1608 17.3605 11.6308 17.4605C12.0908 17.5705 12.5508 17.2805 12.6708 16.8105L14.4208 8.94046Z M0 2.76C0 1.24 1.21 0 2.71 0L20.04 0C21.54 0 22.75 1.24 22.75 2.76L22.75 6.45C22.75 6.93 22.36 7.33 21.88 7.33C21.39 7.33 21 6.93 21 6.45L21 2.76C21 2.2 20.57 1.75 20.04 1.75L2.71 1.75C2.18 1.75 1.75 2.2 1.75 2.76L1.75 23.49C1.75 24.05 2.18 24.5 2.71 24.5L15.51 24.5L21 19.6179L21 17.495C21 17.015 21.39 16.625 21.88 16.625C22.36 16.625 22.75 17.015 22.75 17.495L22.75 19.995C22.75 20.1333 22.7176 20.264 22.6601 20.3802C22.6104 20.4914 22.5367 20.594 22.44 20.68L16.41 26.04C16.25 26.17 16.05 26.25 15.83 26.25L2.71 26.25C1.21 26.25 0 25.01 0 23.49L0 2.76Z " /></g></g></svg>