<svg xmlns="http://www.w3.org/2000/svg" xmlns:xlink="http://www.w3.org/1999/xlink" width="16" height="16" fill="none" viewBox="0 0 16 16"><defs><rect id="path_0" width="16" height="16" x="0" y="0"/></defs><g opacity="1" transform="translate(0 0) rotate(0 8 8)"><mask id="bg-mask-0" fill="#fff"><use xlink:href="#path_0"/></mask><g mask="url(#bg-mask-0)"><path id="分组 1" fill-rule="evenodd" style="fill:currentColor" d="M5.49994 2.99994C4.12994 2.99994 2.99994 4.12994 2.99994 5.49994L2.99994 13.4999C2.99994 14.8699 4.12994 15.9999 5.49994 15.9999L13.4999 15.9999C14.8699 15.9999 15.9999 14.8699 15.9999 13.4999L15.9999 5.49994C15.9999 4.12994 14.8699 2.99994 13.4999 2.99994L5.49994 2.99994Z M7.9999 12.4995C7.9999 11.6695 7.3299 10.9995 6.4999 10.9995C5.6699 10.9995 4.9999 11.6695 4.9999 12.4995C4.9999 13.3295 5.6699 13.9995 6.4999 13.9995C7.3299 13.9995 7.9999 13.3295 7.9999 12.4995Z M7.9999 6.49958C7.9999 5.66958 7.3299 4.99958 6.4999 4.99958C5.6699 4.99958 4.9999 5.66958 4.9999 6.49958C4.9999 7.32958 5.6699 7.99958 6.4999 7.99958C7.3299 7.99958 7.9999 7.32958 7.9999 6.49958Z M10.9998 9.49952C10.9998 8.66952 10.3298 7.99952 9.49984 7.99952C8.66984 7.99952 7.99984 8.66952 7.99984 9.49952C7.99984 10.3295 8.66984 10.9995 9.49984 10.9995C10.3298 10.9995 10.9998 10.3295 10.9998 9.49952Z M13.9998 12.4995C13.9998 11.6695 13.3298 10.9995 12.4998 10.9995C11.6698 10.9995 10.9998 11.6695 10.9998 12.4995C10.9998 13.3295 11.6698 13.9995 12.4998 13.9995C13.3298 13.9995 13.9998 13.3295 13.9998 12.4995Z M13.9998 6.49958C13.9998 5.66958 13.3298 4.99958 12.4998 4.99958C11.6698 4.99958 10.9998 5.66958 10.9998 6.49958C10.9998 7.32958 11.6698 7.99958 12.4998 7.99958C13.3298 7.99958 13.9998 7.32958 13.9998 6.49958Z M10.5 0L2.5 0C1.13 0 0 1.13 0 2.5L0 10.5C0 11.7 0.86 12.72 2 12.95L2 3C2 2.45 2.45 2 3 2L12.95 2C12.72 0.86 11.7 0 10.5 0Z" opacity="1" transform="translate(-1.3322676295501878e-15 0) rotate(0 8 8)"/></g></g></svg>