<svg xmlns="http://www.w3.org/2000/svg" xmlns:xlink="http://www.w3.org/1999/xlink" width="18" height="18" viewBox="0 0 18 18" fill="none"><defs><rect id="path_0" x="0" y="0" width="18" height="18" /></defs><g opacity="1" transform="translate(0 0)  rotate(0 9 9)"><mask id="bg-mask-0" fill="white"><use xlink:href="#path_0"></use></mask><g mask="url(#bg-mask-0)" ><path id="路径 1" fill-rule="evenodd" style="fill:currentColor" transform="translate(3.3046875 3.3644531250000003)  rotate(0 5.6786132812500005 5.6786132812500005)" opacity="1" d="M10.19,11.16C10.46,11.42 10.89,11.42 11.16,11.16C11.42,10.89 11.42,10.46 11.16,10.19L6.64,5.68L11.16,1.17C11.42,0.9 11.42,0.47 11.16,0.2C10.89,-0.07 10.46,-0.07 10.19,0.2L5.68,4.71L1.17,0.2C0.9,-0.07 0.47,-0.07 0.2,0.2C-0.07,0.47 -0.07,0.9 0.2,1.17L4.71,5.68L0.2,10.19C-0.07,10.46 -0.07,10.89 0.2,11.16C0.47,11.42 0.9,11.42 1.17,11.16L5.68,6.64L10.19,11.16Z " /></g></g></svg>