<svg xmlns="http://www.w3.org/2000/svg" xmlns:xlink="http://www.w3.org/1999/xlink" width="160" height="160" fill="none" viewBox="0 0 160 160"><defs><rect id="path_0" width="160" height="160" x="0" y="0"/><path id="path_1" d="M1.33,9.76C0.44,11.78 0,13.78 0,15.78L0,144.22C0,146.22 0.44,148.22 1.33,150.24C2.22,152.24 3.42,153.98 4.94,155.49C6.46,156.99 8.18,158.13 10.08,158.88C11.97,159.63 14.07,160 16.34,160L113.66,160C115.93,160 118.03,159.63 119.93,158.88C121.82,158.13 123.54,156.99 125.06,155.49C126.58,153.98 127.78,152.24 128.67,150.24C129.56,148.22 130,146.22 130,144.22L130,45.01L84.99,0L16.34,0C14.07,0 11.97,0.37 10.08,1.12C8.18,1.87 6.46,3.01 4.94,4.51C3.42,6.02 2.22,7.76 1.33,9.76Z" transform="translate(0 0) rotate(0 65 80)"/></defs><g opacity="1" transform="translate(0 0) rotate(0 80 80)"><mask id="bg-mask-0" fill="#fff"><use xlink:href="#path_0"/></mask><g mask="url(#bg-mask-0)"><g opacity="1" transform="translate(15 0) rotate(0 65 80)"><g opacity="1" transform="translate(0 0) rotate(0 65 80)"><mask id="mask-1" fill="#fff"><use xlink:href="#path_1"/></mask><g mask="url(#mask-1)"><path id="Mask" fill-rule="evenodd" style="fill:#2189ff" d="M1.33,9.76C0.44,11.78 0,13.78 0,15.78L0,144.22C0,146.22 0.44,148.22 1.33,150.24C2.22,152.24 3.42,153.98 4.94,155.49C6.46,156.99 8.18,158.13 10.08,158.88C11.97,159.63 14.07,160 16.34,160L113.66,160C115.93,160 118.03,159.63 119.93,158.88C121.82,158.13 123.54,156.99 125.06,155.49C126.58,153.98 127.78,152.24 128.67,150.24C129.56,148.22 130,146.22 130,144.22L130,45.01L84.99,0L16.34,0C14.07,0 11.97,0.37 10.08,1.12C8.18,1.87 6.46,3.01 4.94,4.51C3.42,6.02 2.22,7.76 1.33,9.76Z" opacity="1" transform="translate(0 0) rotate(0 65 80)"/></g></g><path id="Icon" fill-rule="evenodd" style="fill:#fff" d="M7.5 65L57.5 65C61.64 65 65 61.64 65 57.5L65 7.5C65 3.36 61.64 0 57.5 0L7.5 0C3.36 0 0 3.36 0 7.5L0 57.5C0 61.64 3.36 65 7.5 65Z M19.92 36.06L19.92 36.25L7.5 54.23L57.5 54.42L41.4 30L28.98 48.36L19.92 36.06Z M20.5 20.5C20.5 17.74 18.26 15.5 15.5 15.5C12.74 15.5 10.5 17.74 10.5 20.5C10.5 23.26 12.74 25.5 15.5 25.5C18.26 25.5 20.5 23.26 20.5 20.5Z" opacity="1" transform="translate(32.5 57.5) rotate(0 32.5 32.5)"/><path id="Path" fill-rule="evenodd" style="fill:#70b8ff" d="M45,45L0,0L0,35C0,40.52 4.48,45 10,45L45,45Z" opacity="1" transform="translate(85 0) rotate(0 22.5 22.5)"/></g></g></g></svg>