<svg viewBox="0 0 1126 1024" version="1.1" xmlns="http://www.w3.org/2000/svg"><path d="M4.26666665 814.557867L4.26666665 1024C453.66613365 1000.277333 473.46346665 465.476267 473.46346665 465.476267l0-372.32640001c0-51.438933-42.973867-93.115733-95.982933-93.11573399l-277.230934 0c-53.009067 0-95.982933 41.6768-95.98293301 93.115734l1e-8 325.76853301C4.26666665 470.3232 47.24053365 512 100.24959965 512l88.2688 0C208.72533365 769.604267 4.26666665 814.557867 4.26666665 814.557867zM1130.66666665 465.476267l0-372.3264c0-51.438933-42.939733-93.115733-95.982933-93.115734l-277.1968 0c-53.009067 0-96.017067 41.6768-96.017067 93.115734l0 325.768533c0 51.40480001 43.008 93.0816 96.017067 93.0816L845.75573365 512c20.206933 257.604267-184.285867 302.557867-184.285867 302.557867L661.46986665 1024C1110.86933365 1000.277333 1130.66666665 465.476267 1130.66666665 465.476267z" fill="currentcolor"></path></svg>
