<svg xmlns="http://www.w3.org/2000/svg" xmlns:xlink="http://www.w3.org/1999/xlink" width="28" height="28" viewBox="0 0 28 28" fill="currentColor"><defs><rect id="path_0" x="0" y="0" width="28" height="28" /></defs><g opacity="1" transform="translate(0 0)  rotate(0 14 14)"><mask id="bg-mask-0" fill="white"><use xlink:href="#path_0"></use></mask><g mask="url(#bg-mask-0)" ><path id="分组 1" fill-rule="evenodd" style="fill:currentColor" transform="translate(2.3333333242187493 2.3824500000000013)  rotate(0 11.66666667578125 11.666666662109378)" opacity="1" d="M0 2.33L0 8.17C0 9.46 1.04 10.5 2.33 10.5L8.17 10.5C9.46 10.5 10.5 9.46 10.5 8.17L10.5 2.33C10.5 1.04 9.46 0 8.17 0L2.33 0C1.04 0 0 1.04 0 2.33Z M1.75 2.33L1.75 8.17C1.75 8.49 2.01 8.75 2.33 8.75L8.17 8.75C8.49 8.75 8.75 8.49 8.75 8.17L8.75 2.33C8.75 2.01 8.49 1.75 8.17 1.75L2.33 1.75C2.01 1.75 1.75 2.01 1.75 2.33Z M0 15.1633L0 21.0033C0 22.2933 1.04 23.3333 2.33 23.3333L8.17 23.3333C9.46 23.3333 10.5 22.2933 10.5 21.0033L10.5 15.1633C10.5 13.8733 9.46 12.8333 8.17 12.8333L2.33 12.8333C1.04 12.8333 0 13.8733 0 15.1633Z M1.75 15.1633L1.75 21.0033C1.75 21.3233 2.01 21.5833 2.33 21.5833L8.17 21.5833C8.49 21.5833 8.75 21.3233 8.75 21.0033L8.75 15.1633C8.75 14.8433 8.49 14.5833 8.17 14.5833L2.33 14.5833C2.01 14.5833 1.75 14.8433 1.75 15.1633Z M21.0033 1.55431e-15L15.1633 1.55431e-15C13.8733 1.55431e-15 12.8333 1.04 12.8333 2.33L12.8333 8.17C12.8333 9.46 13.8733 10.5 15.1633 10.5L21.0033 10.5C22.2933 10.5 23.3333 9.46 23.3333 8.17L23.3333 2.33C23.3333 1.04 22.2933 1.55431e-15 21.0033 1.55431e-15Z M21.0033 1.75L15.1633 1.75C14.8433 1.75 14.5833 2.01 14.5833 2.33L14.5833 8.17C14.5833 8.49 14.8433 8.75 15.1633 8.75L21.0033 8.75C21.3233 8.75 21.5833 8.49 21.5833 8.17L21.5833 2.33C21.5833 2.01 21.3233 1.75 21.0033 1.75Z M12.8333 15.1633L12.8333 21.0033C12.8333 22.2933 13.8733 23.3333 15.1633 23.3333L21.0033 23.3333C22.2933 23.3333 23.3333 22.2933 23.3333 21.0033L23.3333 15.1633C23.3333 13.8733 22.2933 12.8333 21.0033 12.8333L15.1633 12.8333C13.8733 12.8333 12.8333 13.8733 12.8333 15.1633Z M14.5833 15.1633L14.5833 21.0033C14.5833 21.3233 14.8433 21.5833 15.1633 21.5833L21.0033 21.5833C21.3233 21.5833 21.5833 21.3233 21.5833 21.0033L21.5833 15.1633C21.5833 14.8433 21.3233 14.5833 21.0033 14.5833L15.1633 14.5833C14.8433 14.5833 14.5833 14.8433 14.5833 15.1633Z " /></g></g></svg>