<svg xmlns="http://www.w3.org/2000/svg" xmlns:xlink="http://www.w3.org/1999/xlink" width="28" height="28" viewBox="0 0 28 28" fill="currentColor"><defs><rect id="path_0" x="0" y="0" width="28" height="28" /></defs><g opacity="1" transform="translate(0 0)  rotate(0 14 14)"><mask id="bg-mask-0" fill="white"><use xlink:href="#path_0"></use></mask><g mask="url(#bg-mask-0)" ><path id="分组 1" fill-rule="evenodd" style="fill:currentColor" transform="translate(2.3333333242187493 1.1712617055994192)  rotate(0 12.272260665893555 12.272260665893555)" opacity="1" d="M0 3.54119L0 9.38119C0 10.6712 1.04 11.7112 2.33 11.7112L8.17 11.7112C9.46 11.7112 10.5 10.6712 10.5 9.38119L10.5 3.54119C10.5 2.25119 9.46 1.21119 8.17 1.21119L2.33 1.21119C1.04 1.21119 0 2.25119 0 3.54119Z M0 16.3745L0 22.2145C0 23.5045 1.04 24.5445 2.33 24.5445L8.17 24.5445C9.46 24.5445 10.5 23.5045 10.5 22.2145L10.5 16.3745C10.5 15.0845 9.46 14.0445 8.17 14.0445L2.33 14.0445C1.04 14.0445 0 15.0845 0 16.3745Z M23.8604 4.81363L19.7309 0.684126C18.8187 -0.228042 17.3479 -0.228042 16.4358 0.684126L12.3063 4.81363C11.3941 5.7258 11.3941 7.19658 12.3063 8.10875L16.4358 12.2382C17.3479 13.1504 18.8187 13.1504 19.7309 12.2382L23.8604 8.10875C24.7726 7.19658 24.7726 5.7258 23.8604 4.81363Z M22.623 6.05107L18.4935 1.92156C18.2672 1.69529 17.8995 1.69529 17.6732 1.92156L13.5437 6.05107C13.3174 6.27734 13.3174 6.64504 13.5437 6.87131L17.6732 11.0008C17.8995 11.2271 18.2672 11.2271 18.4935 11.0008L22.623 6.87131C22.8492 6.64504 22.8492 6.27734 22.623 6.05107Z M12.8333 16.3745L12.8333 22.2145C12.8333 23.5045 13.8733 24.5445 15.1633 24.5445L21.0033 24.5445C22.2933 24.5445 23.3333 23.5045 23.3333 22.2145L23.3333 16.3745C23.3333 15.0845 22.2933 14.0445 21.0033 14.0445L15.1633 14.0445C13.8733 14.0445 12.8333 15.0845 12.8333 16.3745Z " /></g></g></svg>