<svg xmlns="http://www.w3.org/2000/svg" xmlns:xlink="http://www.w3.org/1999/xlink" width="28" height="28" viewBox="0 0 28 28" fill="currentColor"><defs><rect id="path_0" x="0" y="0" width="28" height="28" /></defs><g opacity="1" transform="translate(0 0)  rotate(0 14 14)"><mask id="bg-mask-0" fill="white"><use xlink:href="#path_0"></use></mask><g mask="url(#bg-mask-0)" ><path id="分组 1" fill-rule="evenodd" style="fill:currentColor" transform="translate(1.7441668565567292 1.75)  rotate(0 12.258650930123915 12.25)" opacity="1" d="M21.88 12.97C21.9 12.75 21.92 12.51 21.92 12.25C21.92 11.99 21.9 11.75 21.88 11.53L23.96 9.95C24.53 9.52 24.68 8.75 24.31 8.09L21.99 4.18C21.73 3.72 21.22 3.43 20.7 3.43C20.52 3.43 20.37 3.46 20.2 3.52L17.72 4.48C17.31 4.2 16.87 3.96 16.43 3.76L16.06 1.25C15.95 0.52 15.34 0 14.6 0L9.92 0C9.17 0 8.56 0.53 8.45 1.22L8.1 3.76C7.66 3.96 7.25 4.2 6.81 4.48L4.34 3.52C4.16 3.46 3.99 3.43 3.81 3.43C3.29 3.43 2.78 3.7 2.54 4.16L0.2 8.09C-0.17 8.71 -0.02 9.52 0.55 9.95L2.63 11.53C2.61 11.79 2.59 12.03 2.59 12.25C2.59 12.47 2.59 12.71 2.63 12.97L0.55 14.55C-0.02 14.98 -0.17 15.75 0.2 16.41L2.52 20.32C2.78 20.78 3.29 21.07 3.81 21.07C3.99 21.07 4.14 21.04 4.32 20.98L6.79 20.02C7.2 20.3 7.64 20.54 8.08 20.74L8.45 23.25C8.54 23.95 9.17 24.5 9.92 24.5L14.6 24.5C15.34 24.5 15.95 23.98 16.06 23.28L16.43 20.74C16.87 20.54 17.29 20.3 17.72 20.02L20.2 20.98C20.37 21.04 20.55 21.07 20.72 21.07C21.25 21.07 21.75 20.8 21.99 20.34L24.33 16.38C24.68 15.75 24.53 14.98 23.96 14.55L21.88 12.97Z M8.75583 12.25C8.75583 14.17 10.3358 15.75 12.2558 15.75C14.1758 15.75 15.7558 14.17 15.7558 12.25C15.7558 10.33 14.1758 8.75 12.2558 8.75C10.3358 8.75 8.75583 10.33 8.75583 12.25Z " /></g></g></svg>