<svg xmlns="http://www.w3.org/2000/svg" xmlns:xlink="http://www.w3.org/1999/xlink" width="28" height="28" viewBox="0 0 28 28" fill="currentColor"><defs><rect id="path_0" x="0" y="0" width="28" height="28" /></defs><g opacity="1" transform="translate(0 0)  rotate(0 14 14)"><mask id="bg-mask-0" fill="white"><use xlink:href="#path_0"></use></mask><g mask="url(#bg-mask-0)" ><path id="分组 1" fill-rule="evenodd" style="fill:currentColor" transform="translate(1.7441668565567292 1.7499999999999998)  rotate(0 12.258650930123915 12.25)" opacity="1" d="M3.70521 10.13L4.46521 10.72L4.38521 11.68C4.35521 11.88 4.35521 12.07 4.35521 12.25C4.35521 12.42 4.35521 12.62 4.38521 12.82L4.46521 13.78L3.70521 14.37L1.86521 15.77L3.94521 19.25L6.17521 18.38L7.02521 18.05L7.79521 18.55C8.12521 18.77 8.49521 18.97 8.84521 19.14L9.69521 19.53L9.82521 20.48L10.1552 22.75L14.3552 22.75L14.6852 20.45L14.8152 19.53L15.6652 19.14C16.0152 18.99 16.3652 18.79 16.7152 18.55L17.4852 18.05L18.3352 18.38L20.5852 19.25L22.6452 15.77L20.8052 14.37L20.0452 13.78L20.1352 12.82C20.1552 12.62 20.1552 12.43 20.1552 12.25C20.1552 12.08 20.1552 11.88 20.1352 11.68L20.0452 10.72L20.8052 10.13L22.6452 8.73L20.5652 5.25L18.3352 6.13L17.4852 6.45L16.7152 5.95C16.3852 5.73 16.0152 5.53 15.6652 5.36L14.8152 4.97L14.6852 4.03L14.3552 1.75L10.1552 1.75L9.82521 4.05L9.69521 4.97L8.84521 5.36C8.49521 5.51 8.14521 5.71 7.79521 5.95L7.02521 6.45L6.17521 6.13L3.92521 5.25L1.86521 8.73L3.70521 10.13Z M21.88 12.97C21.9 12.75 21.92 12.51 21.92 12.25C21.92 11.99 21.9 11.75 21.88 11.53L23.96 9.95C24.53 9.52 24.68 8.75 24.31 8.09L21.99 4.18C21.73 3.72 21.22 3.43 20.7 3.43C20.52 3.43 20.37 3.46 20.2 3.52L17.72 4.48C17.31 4.2 16.87 3.96 16.43 3.76L16.06 1.25C15.95 0.52 15.34 1.94289e-16 14.6 1.94289e-16L9.92 1.94289e-16C9.17 1.94289e-16 8.56 0.53 8.45 1.22L8.1 3.76C7.66 3.96 7.25 4.2 6.81 4.48L4.34 3.52C4.16 3.46 3.99 3.43 3.81 3.43C3.29 3.43 2.78 3.7 2.54 4.16L0.2 8.09C-0.17 8.71 -0.02 9.52 0.55 9.95L2.63 11.53C2.61 11.79 2.59 12.03 2.59 12.25C2.59 12.47 2.59 12.71 2.63 12.97L0.55 14.55C-0.02 14.98 -0.17 15.75 0.2 16.41L2.52 20.32C2.78 20.78 3.29 21.07 3.81 21.07C3.99 21.07 4.14 21.04 4.32 20.98L6.79 20.02C7.2 20.3 7.64 20.54 8.08 20.74L8.45 23.25C8.54 23.95 9.17 24.5 9.92 24.5L14.6 24.5C15.34 24.5 15.95 23.98 16.06 23.28L16.43 20.74C16.87 20.54 17.29 20.3 17.72 20.02L20.2 20.98C20.37 21.04 20.55 21.07 20.72 21.07C21.25 21.07 21.75 20.8 21.99 20.34L24.33 16.38C24.68 15.75 24.53 14.98 23.96 14.55L21.88 12.97Z M8.75583 12.25C8.75583 14.17 10.3358 15.75 12.2558 15.75C14.1758 15.75 15.7558 14.17 15.7558 12.25C15.7558 10.33 14.1758 8.75 12.2558 8.75C10.3358 8.75 8.75583 10.33 8.75583 12.25Z M7.00583 12.25C7.00583 15.14 9.36583 17.5 12.2558 17.5C15.1458 17.5 17.5058 15.14 17.5058 12.25C17.5058 9.36 15.1458 7 12.2558 7C9.36583 7 7.00583 9.36 7.00583 12.25Z " /></g></g></svg>