<svg xmlns="http://www.w3.org/2000/svg" xmlns:xlink="http://www.w3.org/1999/xlink" width="18" height="18" fill="none" viewBox="0 0 18 18"><defs><rect id="path_0" width="18" height="18" x="0" y="0"/></defs><g opacity="1" transform="translate(0 0) rotate(0 9 9)"><mask id="bg-mask-0" fill="#fff"><use xlink:href="#path_0"/></mask><g mask="url(#bg-mask-0)"><path id="路径 1" fill-rule="evenodd" style="fill:currentColor" d="M1.07,4.07C0.83,3.83 0.43,3.83 0.19,4.08C-0.06,4.33 -0.06,4.73 0.19,4.97L4.36,9.14L4.36,9.15C4.61,9.39 5.01,9.39 5.25,9.14L13.31,1.08L13.32,1.07C13.56,0.83 13.56,0.43 13.31,0.19C13.07,-0.06 12.67,-0.06 12.42,0.19L4.8,7.8L1.08,4.08L1.07,4.07Z" opacity="1" transform="translate(2.2504394531250003 4.335205078125) rotate(0 6.750230473775247 4.664585942525245)"/></g></g></svg>