<svg xmlns="http://www.w3.org/2000/svg" xmlns:xlink="http://www.w3.org/1999/xlink" width="28" height="28" viewBox="0 0 28 28" fill="currentColor"><defs><rect id="path_0" x="0" y="0" width="28" height="28" /></defs><g opacity="1" transform="translate(0 0)  rotate(0 14 14)"><mask id="bg-mask-0" fill="white"><use xlink:href="#path_0"></use></mask><g mask="url(#bg-mask-0)" ><path id="分组 1" fill-rule="evenodd" style="fill:currentColor" transform="translate(0.6028804362486468 0.608117695093374)  rotate(0 13.383407196091317 13.377843824821186)" opacity="1" d="M25.4984 23.4508C25.6784 23.2708 25.7784 23.0308 25.7784 22.7708C25.7784 22.5208 25.6784 22.2708 25.4984 22.1008L19.1284 15.7208C18.7484 15.3508 18.1484 15.3508 17.7684 15.7208C17.3984 16.0908 17.3984 16.7008 17.7684 17.0708L23.4684 22.7708L22.4784 23.7708L16.7584 18.0508C16.3884 17.6808 15.7784 17.6808 15.4084 18.0508C15.0384 18.4308 15.0384 19.0308 15.4084 19.4108L21.7984 25.8008C21.9784 25.9808 22.2184 26.0808 22.4784 26.0808C22.7284 26.0808 22.9684 25.9808 23.1484 25.8008L25.4984 23.4508Z M15.2 0.7C15.18 0.7 15.16 0.69 15.15 0.69L15.14 0.68C11.74 -0.71 7.84 0.07 5.25 2.67C5.23 2.69 5.22 2.73 5.2 2.75C5.17 2.77 5.14 2.78 5.12 2.8L0.28 7.62C-0.09 8 -0.09 8.6 0.28 8.98L3.22 11.91C3.4 12.09 3.64 12.2 3.89 12.2C4.15 12.2 4.39 12.09 4.57 11.91L6.24 10.24L8.28 12.28C8.46 12.46 8.7 12.56 8.96 12.56C9.21 12.56 9.45 12.46 9.63 12.28C9.81 12.1 9.91 11.86 9.91 11.6C9.91 11.35 9.81 11.1 9.63 10.92L6.92 8.21C6.74 8.04 6.5 7.93 6.24 7.93C5.99 7.93 5.75 8.04 5.57 8.21L3.89 9.89L2.31 8.3L6.47 4.16C6.5 4.13 6.5 4.1 6.52 4.08C6.55 4.06 6.58 4.05 6.61 4.02C7.77 2.86 9.3 2.14 10.93 1.97L10.74 2.12C10.47 2.32 10.21 2.54 9.97 2.78C9.95 2.8 9.95 2.82 9.93 2.83C9.26 3.51 8.69 4.29 8.24 5.14L8.26 5.15C7.89 5.88 7.89 6.75 8.27 7.48C8.32 7.57 8.37 7.65 8.44 7.71C8.46 7.74 8.47 7.78 8.5 7.8L10.61 9.91C10.79 10.09 11.03 10.19 11.28 10.19C11.54 10.19 11.78 10.09 11.96 9.91C12.33 9.53 12.33 8.93 11.96 8.56L9.95 6.55C9.87 6.37 9.88 6.16 9.97 5.99C9.97 5.98 9.97 5.97 9.97 5.96C10.33 5.3 10.77 4.7 11.3 4.17C11.43 4.04 11.56 3.94 11.69 3.83C12.59 3.06 13.71 2.61 14.88 2.54C14.9 2.54 14.91 2.53 14.93 2.52C15.04 2.51 15.14 2.49 15.24 2.44C15.25 2.44 15.27 2.42 15.28 2.42C15.38 2.37 15.46 2.3 15.53 2.22C15.54 2.21 15.55 2.2 15.55 2.19C15.61 2.12 15.67 2.05 15.71 1.95C15.72 1.94 15.72 1.92 15.73 1.9L15.73 1.9C15.77 1.78 15.79 1.65 15.78 1.53L15.78 1.52C15.77 1.4 15.74 1.28 15.69 1.17C15.68 1.15 15.66 1.14 15.65 1.11C15.6 1.03 15.54 0.95 15.47 0.89C15.44 0.86 15.41 0.84 15.38 0.82C15.32 0.78 15.27 0.73 15.2 0.7Z M12.1481 19.2174L19.2281 12.1274C19.8181 12.3274 20.4381 12.4274 21.0581 12.4274C22.5781 12.4274 24.0281 11.8274 25.0981 10.7574C26.7981 9.03741 27.2481 6.43741 26.2181 4.24741C26.0881 3.96741 25.8281 3.76741 25.5181 3.70741C25.2081 3.65741 24.8981 3.75741 24.6781 3.97741L22.0081 6.64741L21.0181 5.65741L23.6781 3.00741C23.8981 2.78741 23.9981 2.46741 23.9381 2.15741C23.8781 1.84741 23.6781 1.58741 23.3881 1.45741C22.6481 1.12741 21.8281 0.947411 21.0081 0.947411C19.4981 0.947411 18.0381 1.54741 16.9681 2.61741C15.4481 4.13741 14.9281 6.38741 15.5581 8.41741L8.42809 15.5474C6.38809 14.9074 4.15809 15.4474 2.63809 16.9474C0.958093 18.6474 0.498093 21.1974 1.47809 23.3774C1.59809 23.6574 1.86809 23.8674 2.17809 23.9174C2.47809 23.9774 2.79809 23.8774 3.02809 23.6574L5.63809 21.0474L6.61809 22.0274L3.99809 24.6574C3.76809 24.8774 3.67809 25.1974 3.72809 25.4974C3.77809 25.8074 3.97809 26.0674 4.25809 26.2074C5.03809 26.5674 5.87809 26.7574 6.72809 26.7574L6.72809 26.7574C8.24809 26.7574 9.69809 26.1574 10.7681 25.0874C12.2981 23.5374 12.8281 21.2774 12.1481 19.2174Z " /></g></g></svg>