<svg xmlns="http://www.w3.org/2000/svg" xmlns:xlink="http://www.w3.org/1999/xlink" width="160" height="160" viewBox="0 0 160 160" fill="none"><defs><rect id="path_0" x="0" y="0" width="160" height="160" /><path id="path_1"
        transform="translate(0 0) rotate(0 65 80)"
        d="M10.08,1.12C8.18,1.87 6.46,3.01 4.94,4.51C3.42,6.02 2.22,7.76 1.33,9.76C0.44,11.78 0,13.78 0,15.78L0,144.22C0,146.22 0.44,148.22 1.33,150.24C2.22,152.24 3.42,153.98 4.94,155.49C6.46,156.99 8.18,158.13 10.08,158.88C11.97,159.63 14.07,160 16.34,160L113.66,160C115.93,160 118.03,159.63 119.93,158.88C121.82,158.13 123.54,156.99 125.06,155.49C126.58,153.98 127.78,152.24 128.67,150.24C129.56,148.22 130,146.22 130,144.22L130,45.01L84.99,0L16.34,0C14.07,0 11.97,0.37 10.08,1.12Z" /></defs><g opacity="1" transform="translate(0 0)  rotate(0 80 80)"><mask id="bg-mask-0" fill="white"><use xlink:href="#path_0"></use></mask><g mask="url(#bg-mask-0)" ><g opacity="1" transform="translate(15 0)  rotate(0 65 80)"><g opacity="1" transform="translate(0 0)  rotate(0 65 80)"><mask id="mask-1" fill="white"><use xlink:href="#path_1"></use></mask><g mask="url(#mask-1)"><path id="Mask" fill-rule="evenodd" style="fill:#8652FF" transform="translate(0 0)  rotate(0 65 80)" opacity="1" d="M10.08,1.12C8.18,1.87 6.46,3.01 4.94,4.51C3.42,6.02 2.22,7.76 1.33,9.76C0.44,11.78 0,13.78 0,15.78L0,144.22C0,146.22 0.44,148.22 1.33,150.24C2.22,152.24 3.42,153.98 4.94,155.49C6.46,156.99 8.18,158.13 10.08,158.88C11.97,159.63 14.07,160 16.34,160L113.66,160C115.93,160 118.03,159.63 119.93,158.88C121.82,158.13 123.54,156.99 125.06,155.49C126.58,153.98 127.78,152.24 128.67,150.24C129.56,148.22 130,146.22 130,144.22L130,45.01L84.99,0L16.34,0C14.07,0 11.97,0.37 10.08,1.12Z " /></g></g><path id="Shape" fill-rule="evenodd" style="fill:#FFFFFF" transform="translate(30 60)  rotate(0 35 30)" opacity="1" d="M65.9051 0C68.1651 0 70.0051 1.88 69.9951 4.17L69.9951 55.84C69.9951 57.05 69.6051 58.12 68.6852 58.93C68.0151 59.59 66.9651 60 65.9051 60C64.8551 60 63.9351 59.59 63.1351 58.79L52.1851 47.65C49.8051 45.23 48.4851 42.01 48.4851 38.66L48.4851 21.34C48.4851 17.98 49.8051 14.77 52.1851 12.35L63.1351 1.21C63.9351 0.41 64.8551 0 65.9051 0Z M35.95 53.9876L7.5 53.9876C3.36 53.9876 0 50.6276 0 46.4876L0 12.4076C0 8.26757 3.36 4.90757 7.5 4.90757L35.95 4.90757C40.09 4.90757 43.45 8.26757 43.45 12.4076L43.45 46.4876C43.45 50.6276 40.09 53.9876 35.95 53.9876Z " /><path id="Path" fill-rule="evenodd" style="fill:#CAB3FF" transform="translate(85 0)  rotate(0 22.5 22.5)" opacity="1" d="M45,45L0,0L0,35C0,40.52 4.48,45 10,45L45,45Z " /></g></g></g></svg>