<svg xmlns="http://www.w3.org/2000/svg" xmlns:xlink="http://www.w3.org/1999/xlink" width="18" height="18" viewBox="0 0 18 18" fill="currentColor"><defs><rect id="path_0" x="0" y="0" width="18" height="18" /></defs><g opacity="1" transform="translate(0 0)  rotate(0 9 9)"><mask id="bg-mask-0" fill="white"><use xlink:href="#path_0"></use></mask><g mask="url(#bg-mask-0)" ><path id="分组 1" fill-rule="evenodd" style="fill:currentColor" transform="translate(1.1566406250000232 1.1425781250000018)  rotate(0 7.860937500000002 7.8609375)" opacity="1" d="M2.6 15.72L10.7 15.72C12.07 15.72 13.2 14.65 13.29 13.29C14.65 13.2 15.72 12.07 15.72 10.7L15.72 2.6C15.72 1.17 14.55 0 13.12 0L5.02 0C3.65 0 2.52 1.07 2.43 2.43C1.07 2.52 0 3.65 0 5.02L0 13.12C0 14.55 1.17 15.72 2.6 15.72Z M12.3144 5.02488C12.3144 4.13488 11.5844 3.40488 10.6944 3.40488L2.60437 3.40488C1.71438 3.40488 0.984375 4.13488 0.984375 5.02488L0.984375 13.1149C0.984375 14.0049 1.71438 14.7349 2.60437 14.7349L10.6944 14.7349C11.5844 14.7349 12.3144 14.0049 12.3144 13.1149L12.3144 5.02488Z M14.7372 2.60262C14.7372 1.71262 14.0072 0.982617 13.1172 0.982617L5.02719 0.982617C4.19719 0.982617 3.50719 1.61262 3.41719 2.42262L10.6972 2.42262C12.1372 2.42262 13.2972 3.59262 13.2972 5.02262L13.2972 12.3026C14.1072 12.2126 14.7372 11.5326 14.7372 10.7026L14.7372 2.60262Z " /></g></g></svg>