<svg xmlns="http://www.w3.org/2000/svg" xmlns:xlink="http://www.w3.org/1999/xlink" width="18" height="18" viewBox="0 0 18 18" fill="currentColor"><defs><rect id="path_0" x="0" y="0" width="18" height="18" /></defs><g opacity="1" transform="translate(0 0)  rotate(0 9 9)"><mask id="bg-mask-0" fill="white"><use xlink:href="#path_0"></use></mask><g mask="url(#bg-mask-0)" ><path id="路径 1" fill-rule="evenodd" style="fill:currentColor" transform="translate(1.9811971310968282 1.981320220272406)  rotate(0 6.87389757431538 6.8738975728333145)" opacity="1" d="M13.73,13.33C13.78,13.14 13.72,12.93 13.58,12.79L7.67,6.87L13.58,0.96C13.8,0.74 13.8,0.38 13.58,0.16C13.36,-0.05 13.01,-0.05 12.79,0.16L6.87,6.08L0.96,0.16C0.74,-0.05 0.38,-0.05 0.16,0.16C-0.05,0.38 -0.05,0.74 0.16,0.96L6.08,6.87L0.16,12.79C0.02,12.93 -0.03,13.14 0.02,13.33C0.07,13.52 0.22,13.68 0.42,13.73C0.61,13.78 0.82,13.72 0.96,13.58L6.87,7.67L12.79,13.58C12.93,13.73 13.14,13.78 13.33,13.73C13.52,13.68 13.68,13.53 13.73,13.33Z " /></g></g></svg>